<mxfile host="65bd71144e">
    <diagram id="HIP3nbAZw_EuaXWnEj3U" name="Page-1">
        <mxGraphModel dx="772" dy="613" grid="1" gridSize="10" guides="1" tooltips="1" connect="1" arrows="1" fold="1" page="1" pageScale="1" pageWidth="850" pageHeight="1100" math="0" shadow="0">
            <root>
                <mxCell id="0"/>
                <mxCell id="1" parent="0"/>
                <mxCell id="13" value="http://ics2o.mths.ca" style="swimlane;whiteSpace=wrap;html=1;" vertex="1" parent="1">
                    <mxGeometry x="50" y="50" width="760" height="480" as="geometry"/>
                </mxCell>
                <mxCell id="19" value="" style="shape=image;verticalLabelPosition=bottom;labelBackgroundColor=default;verticalAlign=top;aspect=fixed;imageAspect=0;image=data:image/png,iVBORw0KGgoAAAANSUhEUgAAAQAAAADFCAIAAAA0QruCAAAAAXNSR0IArs4c6QAAIABJREFUeAHtfW9sVEeW75XelygjhNAMu0mw5czAmgkkGWaABKw3eXg8OODRJFphTCaKxgPMhg4o04qQBz1GjZ+WRpbIpOFJhG1rEFInI9QLcYseJUEdItNKL62xkEeO8NorrFhyej8g+7WEFNSI2Jv7XPW7dbpuVd3r7ruNA0nfD3bd2/Xn1Knzq3/n1CnLrj91DnyLOWB9i+ter3qdA3YdAHUh+FZzoA6Ab3Xz1ytfB0BdBr7VHKgD4Fvd/PXK1wFQl4FvNQfqAPhWN3+98nUA1GXgW82BOgC+1c1fr/x9BIBrVy6Ew+FDx05Rq8wURl/p3P7dx1YeOnbqS/paQWBqfCjMn8+++MqJfqfQ82pnQ0PDjlDPzTk1i4HEid0Hj94Vn0EJ0iKMn65dueCQd6cQDoezn97gKW6Fw+EIf8Lh8FDhNkW7duUCvh+Ln0OhM4XRUCg0VLiNovBKRM4URnte7fzxDx5bs/G5Y/FzRA+PPNvX23Msfk7QaJ+K9iDzSCTS/+EQFYoI165ceKVze0NDw7ZdewSd7JdTUTkTlmf/h0OUJwVyA/2/aNuoJB9InCACrl25IHPMtu2BxIlwOCzzNjfQDwrfPTfA6+JilEwVlbv4gfsHALdamiz+/MSR9TsFy7JWrv9ZX2+PZVkH375QOXde69yAvEi2XtpsWVYTslr9q98rWfFfrY/HbuJ7pLvZsixIxvtnj1iWhXZ9J7bfstbYtn37P4cpgs3oXILillosE4qGtM3NLDerseVL2/585AOLx0FBeAUeELasFZFIpOfVToV+8atFNdrfsQxxGhoaon/+iBf6NLLlYWvbrj3RaHTr5scty4r++SP89AKnRdS0ZGLsLLgnJ+860m/b9r42i1jHq7ZEgugtECPD6eRhVgtUnye81bj8oaU8XuPyh+SYoO1r+Xv/AIBVn7ecA4C/Zc5altPeb73xvNXyisSgUjweRxcyUxilsBTBlpNDXtHqskCL+CVAD83MBZq10uE//cW2bTk+yFMBwHNhjf13bciQR3tGpGVCSYKOgJC/8nfbZgK0+le/p4FupjBK3e18tr2htu8+tlIWZdt26lgG50Obbdv+fzeuKNGAByBn+xMQ1DVcdkuPaD0L6ksUomsHRPd3LHMDYAUBANz+hx/+vbX9gOCqzXjCXz9577i7E/kJxfnaA/cvAObm5kqlEhjU9qjlSKdgGHqXf/vsP1jn/XQntYT43QUA27Ypq969691Ycrpz1njW0186UrXkmbXWltf7hBDLIwBrPNcIwIv0BsCSZDIZ2tkKCfACACGE6HcF+GAY/fNHrCNY/SL9JIOcSTkHAMGPogFdGAReaLZ++ZvfPmI5/NQB8Ouflrt5KQcWjHQ3N2/pSvKHj1GriO372ixr+wHQQxM8xpPGlmQyyUehpxGZk+eMVEr+X8vr/QsAYofcgdFH27Zfbm3gvdkSmhXIv8rCQd/RFcndG3XPmUzGsqyhwu1Id/OW1/tY4z3dWQsAMBqXrt6E8coLAKBWnkATzbZtUw+K3p3ol+tIAGAgkbph5LNJ9PQvNDPRR4b/9tl/PCm+U3GtS9S+hn7CzBAjCP+LYUTuDmZlRKGTkqsvBvk6AIip7gCXdbEG4D9B+qnJ5ehofvTT8neEZeGQv9BsmJJg0L9r2+gdMbmnjyR8ovGqHQHYmoEeLwAokk3xEcASpZ0/lui8aQoE/BMAOOXLqG9mOfAB5PQHf51PAgCg+1j67P9s0gDApNw12yzT4jUFQhuBvEcYMpzO/uThztW/+r0yavHIdQCUueoKce6UAQDO9n84JE+HnAS8Udvb2y3LQtO6MhLzYxocgAespGk6hCQ0e0Fx8lzlsy++QkIM672hNsxAMAU6/cFfS/yxbT7fNa8BVtG0nkabj8dulkolWhMj8+ca2UJZJnjbrj1fijn9jlAP9rVe6dxO82kZ5Ix4PgWCuG95vU9goMSHyiUYXggAtNRRdheIUYLsUmhnKxasHgCYfdKymrd0RSKRcDh8YF83rfIZY7cfQEHU73Am1wGgSKt45dxpAuvRB8sDrohl2/Ys6xT5bBjjLM07KY4sHOh3pazKeym2bb+02Zn1QqyxzpNm+bee5Ckblz9EYMOvyBCLE9bPWWzhKwaKVSIgb5U4q14kPPynv6DjB/EzhVGsxVd8/4fYKmnt/sNd2+Y5r6B6yfIk15Gzzhltrl25gCKcDSjLoj3HTZaztqHZnQIAQTbLgJIDAPIuEC/Omh82QYPM/7ZHHX4yyvk0kldBXkdJ1SlX7OsJ3V9rgJnCaD6fByemxofy0jM8PCxxqJTNZmnGnMvlqIEpTqlUyuVywBKylTJzikDk4eHhyclJhPP5/PT0NMK5XK5YLPJwaSBxIhaLSaWUKDeknSmM0q9UCwogQ2RFCXlnzyoiumoG7KuXL8ZiMXlfa3h4eGJiQsrBHh4eHhsbs227WCzKdSQCUFAymYzFYmIP3slArqxt23J95SJmCqP9p48ryafGh6gIqhoFKPlMYTSXy9m2LfGEVRODmx6fEn4tAT8ARKPR0OI+GOVRJsLyX5mWeZ0Lvcqp6GMoFNLjUG5KNIopZ0UfkZX8k/wF0eRfKUwBvTjKnAKIgyRyQjksx6EwBbyyQgRjND1zOZryq/xKYQpQKfSFAnJbyB8pyT0NpFIpH2j5AQAzbAym9b91DjygHIjFYnUAPKBtVye7Bhy4jwDQ0ICd+2prtQSLwmqTBUtlWVYAOhv4Uy2FweKjrGBEBiix2oKU+MqrFwFKNOX1v5PqfgEAdhJyA/1elTF+P3P+EsavU1FmEVThs/vgUaQaSJyoMAlFw4adMBmgz34B2kiptnZdR/qnxof8stZ+Axvn5phB379E/kn73fxh6epNWNBXWxxWvcViUVhqmfOnr4j/Zngn9F/YcV6wUFSKGkvOhHLWAzAVoS0vsUCfhd6d4t8vAMD2cJUiwnSN25+w2vb+M/T5VCv/wO6DR7dufpxtUHJ1gX9k+de1W7uBnKoA8PHYzX/9v/9bzqfC8M25KoRYzrPaqh3+01+wdWvbNlkKyhkaw8T2j8duVt5wn33xFQDQ/+EQNqA/++KrBbH68dhNAgBswJCJkTD6GP3zRwBAa/cfbJvZ9kX//JGCtwcaAE5No3/+aKYwStWuJIBeuapxA3xPJBI2R10lpSDOzTl7bm5uanxo7fLKEzkWB2T4WUVKbp26oEjJGT68rsO2bbZ5WlWP0Nhy12a7rrZtK92qnLkSJgAMFW6jX6gEP8EAADtwmQC9rAceADDB/8fNT8n1rCSMiRDUWJXEZwPxnULzlq6quknLsiKRyI9/8JjOev9Cb87ZVy9fLJWYksE/pvIrV7055sfKT16vZ85fmhofCoVCpVKpkp5Vzif76Q2lT5V/1cNfIwD4VIqZuMrPgw0ASH/l3Q+vOVO+vhneiW6v8snMmfOXJiYmoNiqfMTftmtP/2lm7lsdALjdxI/4qYOqxAt2EFV1/zJtQ4XbVeKNaZcrnzXJs5f+D4dQtZtzrDlkodTDCvcIRXpM+Ys8AvDlYklfqzzAAOATOza74GspFdkyI5TwoWOnSvypdgrE82FNzixzKnuWrt40MTERYAp0LH5ubm6uWCxWNbg1b+mqdjZoWexwTLFYDEDkjlBPtfgsy25jy+Tk5NzcHK1TfTgabAp05vwlZI6OEo2uEHwfAcCn/vWf6hy4RxyoA+AeMbae7YPBga8BAAFMO9rb26PVPzDBrT4ds3G6z1PBEOs+JzIYG6PRaDgcXrSqYVvPyxqi9rZADQ0Nw8PDZPNYYSAej3uR6PO9VCqRIadPNP0nsjnVf/L5cv36dZ9fvX4KVhZMNb3y9Pm+mEQGrhqsWX1qYfwJRqbGn3w++hN5TwCQz+ez1Ty5XC4YAIrFYjBWZrNZH5Z5/eQ2yfaKpX4PVpZt28ESLiaRwSicm5sbGRlR2VTB++DgYAWx1Cj+sFk8AORyucHBQSMuFgLArFon8X6PAABDA1FI+b+PbM2JpxxbhIJJiRcARDnsvyjB9d+fSFdU6cWHSK+CfCiUMmabePKrbbMvOgCUaMorctABAG5Q/sZUtQcAjC68tqIbGhr0ESCfz0PlufvgUf1XHwDgwJElnWmi2uJEiHEE+HzkA1jCwchEToKwT3vjEDAdTZTTeskWEUlGQXIqn7L+ljnrdabZS7zopDmdPJTLsoXiVvlo27fgQ4CspJQIHkTOYv++eUsXHT+SE+qpoDEQZ7jNheoAQKXoaKs7k3KBCgDQUjiRR5ZRS1dvUtqu9gCAsqMqAGSz2VwuF9rZWiUAmL5zqHCbm5Q4Bw7L/OBHoowAuHr5YvbTG0wucUxWTsPDesshCp11VJiIX70AcPJwJ5151Yrym8m80Gw+0IxMvIh0jsN7VM1IJJMV5ipiFvyskEjOdna2M9LdDC9JSkIThbOtSxwXY+/E9nN4sy9yT6QDYD7b3r3rJR7Otj1a9lNGhSoAwOlNAIAfLm26y/04KX3K/QKAfD5fPQCcurP2M7kq8JkCoXugToWYiICp5dgvL222YrEYnTpXUhllC64WLMtSXAVSWq+y9NO0lAQBr4S2bbc96hIpOaGZSG4CxBzjcfMeOb5fWTxVJBJ5RPJmJ6c1UkgAiHQ3g/9vvfG8PDZWAABWQTGMlAv0AQBFUsqa59UDDwBYFMrHrqm2PgCw7VkuYY43BEqCgLHl2DH81S/CXKyqESCZTE5PTx94caXczFSisSzbnt3+hLUj1NPk4dXCawokXEsYxkOUaATAJ+8db97Slclk1i43CJZPWbZdYhMSzdGQDxsJAPs7lqHjV4Ty3gGAO1JYoczWHmwAQPr1zgAN4AEA5uqQAYZ3YEZRNgrlycOdGzY+C1cINLMkOfaaXk+ND6FneuuN542pjGWBtptzzPUi+RuUy/IRSp/u34vI3r3rMYehQIVlwQrdi//GqhEA3ontB0Oea3SNV/cIAFz6m/TmfoABQDNyvqIte6KkxvMAgOOrQ3GRSal8ZIvHYQsPpRdBWmPnat8pdDzzHeZEZEuXzn2fsuBZxLKajIObV8Lb/zkMIz+5OnLYSOTt/xzGrsDD6zqMVTOKMkYbL3x6UbiJ5kt3CjBNa+3+g/AyxCg1AiDS3SytAexyJlLdjFMgzPhpH4Jpp93j1T0BgI8S3LgLlOXPIH8Qlv967QLNuR+JFU7QCwD851mZ6Upar/ZGNONumlfn6p/ES0oWTOWfUKmO/GoEwILF+TNEzl8OG1Mp3FNevQCApqbM9VTzFoo6ACiVW1JcG69fDwByVT7BFGGlUknxmUMc9A/4M8Urrb577RVT/h6srAVXb3IRcngxiQxctWDqaiPe5Lobw/5E3hNFWDKZTFT5RKPRVPUPCslmsxhbKvybzWaZl6vqUzF/VdWnClAWNIYBEmaz2UUjMhgb0UaLSWQ6nTYCAx9rD4Dm5maf8rx+mpiYyGQy2WqeXC6XTqeD2QL59wpeRC5m51ofAfRWeDBGgGAAGBsbqxYA2Ww2nU4HmwIFY6XP9FpvLfoSrKx7sQYgkvRAMCKDpTIugnWS9C/6GkCPo3/x7+zulxHAHwAwKdWHhzoA9PZeTJR+SwEAW6CZwqjRCYLXCICjqLqpBprQBwBXL19s4npW3YjIDwB3Ctt27ZH8zrpExaPlHNMXL4MZVbYcDwvORSkzhVG+67dEVvsbO3KYviDaTGEU13jptgYKkXCXLevajLcKKERif1C2Dvh85ANdX6GU5WxAi9toPh/5gHuubhK+dxxmKqlsexYGMvBr7SjRLMu5WVC0gD4CwHmE2Ed2MtGbTxkBnK3PxhaiCmQrWosajwCcd2ynXDnFTBujRgCAss+++MpL7+MFABhQwNCgKgC8E9tf7QY2WRwZN6GN26CoF2AGwx4IpbzXrkkJE4T9HctgJhDpbiaWKgoBPeHJw50SAEo4uKy0twIAXDAjs2L7EwYDJL0szg3nMi+o3pjAuQ1SlFTM/IQf9odhj2jr0pOkGeAYUABAHIPijJXCzZx0nZ0LALz3GSrcZvEFUJXLDoG4GgOABN3Lv4ARAAL87CIJvfuByxp9DZDL5bjDhVWvdG43WtF5jgCcO0pPTDQYe2X2K0/FbYHMBhS6bEkAYJ0CV4Qx90yyKCtSAjIIAA5VvGhFj6YnlAFw8nDnltf7nmtUTRt0Ij957zgBAJp1pSAjQ2QAvBPbv23XntDOVmWY0ilEdV7azFS/vXvXV24LZPObEGTZ+PVPVaC6AOAwjt9iyDVf6PJe2qwy5J4AgLuguKU4YAE2fACAMUvnvhcArl6+aFnW/CW7oZ2tO0I97B4A9+MFgHdi+5eu3uQ4hxOckv8bW475F2hsSSQSLU0qE5FWl60yAMoSXMJlqVScsSw3AErbnzDcA6snJABAjm/OGTSmOpEyAF7azDxElO94FVTqZUkAmH25teHQsVOnoj3kOQ/p9FTO/Rq8S67KFgjGiyQbTE2++kVlBqsDAHwYKtzGMPLZF18Be6Ja7H/tAQAHLM6tvjQiiIAXACD9ctcoU6lPgXK5nOLBRh8ivAAAW0IwRWGiT8vR6EQBmcKFpkDspiA2GykjwUltlBIJAKWXNpvvpdMTEgC4GYVzObGi+fcDAKcNNsM0JngxpAwAnopN6igg+KJTyAgTBqfExu1PLGALZJB+kYkoiv1XAADpxwwQCyRHBvm1NJSwxgAQBhuzpVLJ6O/FCABIP3OYqplqgFAdAOjrc7mcjx21FwCoOEEtccMJ6C1Hl59yJi6jrkhOqctWeQQQlwXpV08by6LxXfbbpczm9YS6vZ0y2hhRysRLmMfQeRpaOKKCellcvJy7jCiVPEXRJ07CuomxkK1V7hTQSzZv6ZK7IWUNQI21lN+ULIuyUpwMAHCeXUC+/CHroc1k9kKmeNRwNQYA+eb2cghuBECpVCpKDxFHAS8AAAYZ/iAs//UCAC4GVi7Do7L0lpN+mi0Wi8RN6TsL6gCwbRafosExE70ioMsWyIO5i8QV5rhKTqsn1POHuys5lU6k8CzmxCoWi7I4ehEJp12Us160zka5lQXzXfxBbgoAlFTKKxGgjAAgj7hH0XSG1BgAYqbj+d8IAKLPKzA2NjY4OJir8gmsCdZly4sw+fs3WBMcjCH+siWzTgl/w22BJiYmRqp5rl+/nkql4tU/sVgsmUzm8/lcNU8+n4/H49evX6+GxpHr168nk8kAqRKJRLWpRkZYcQESBiYyGEMCUDgyMjI8PByMk8GIzGQyCvzk13ulCZ6r5sHsQpkAyFR6hUulUjweHxwcxByp8r/JZBJ2uZWTSVOgypOgRpi5VpUqcMLFJJLmJNVWrVQqYZ5WVULbtiHK1abyH9zuFQC8RNbr+8jISGAA6Nuj2YUe/5sDvYjUp9deMeXv/g0gx1TCwRIuJpHBKFTWAEqtfV7lRbBPNOUn/3naNxYAMB/ywkYdAIqUBBPlYKkeeADsPng0l8t5eR73WgTPFEb7entwr5PCfdu2/UaAOwW6KUxJiCmQUcpxaW46nTb+qgLgTiEcDpdpu1Po6+05dOyUsluida6lvt4eyRnE7KloTzgclr4wenUpuXblQjgcFhuRswOJE+FwWNeQKAmJgaDKnUmZMUYiDx07JVlnMLJF6U5CpSzbLvWfPh4Oh7EdjHrBE6u8QaylskEV6eBzA/1STZ2ydABMjQ+Fw2FqZSUTqpsyAigMsW1bvsqbUtV4BHh4XUepVIpEIriEQt8M8gAAu7ngzPlLL7c2GPfmfQDgY9VjBAD0Btt27WFeQKwm42xIAcBMYZTh2TEpmW3i6mdm1yW2z8FNRbZmCqNQ1Tk44XqibDabyWTkjVRdSq5evtjS5Oj53z97pHlLF89nmYI3d0JmajEvIr2hNli2Xb180WjVoxC5iduiMWszYcaD3XrFYYy7LOalZ8vrfUTV1csXBwcHmZMsYXUDhiip+N78isHBQWgn2AZ/YwvU+TK8NQDcWrucVe2lzYwnlInui0UBwIEXV873Wb2hNlIX7O9Yphhr3BNNMFqiVCoZb3bwAADj2LUrF3CVEKGTAt4AIBsbilsO+ABgR6iH2xEtqQQAjq8Rp3VLYDTXBLm8jyiyRbozCC5X6KxRpN84AsjGcLAY42Uxv07y4xavEnoyVooQZUmdXE7nJpLV5UvbhlTZtg3t+DNrVTMbd1n2fCfCRwwX83UbQSUViBhInFi6etN8cvJ1pZi1aQBg6SAbhJOBxIkV3/+hPNrQmrtcVZ5q6+bHMeDwqjXJvyJc4xEAXT7W48YL3nwAMJA40bj8IRofZVq9ACCUi6uINXIqIwDQB7/Sud3LhjSbzSojgONrzdW9lVqXsCsH5eLcssV+gT4SgvvJe8dhMaaMG0YpIdmFHvTnm55SzGzMyOGDDDGQMvEnEj6IeNc4+yNur0EuqyihkUgabUz8YUlNqUqYGw8VbldlC8Rgwy+M4iSxyaTuD1MZAQCbliYLvf6BF1fCN4c02WOZ1RgAuw8eBXH6fZTAhhEAU+NDmOGxrs4lZ04TeADA6YGYMl90e04C/s8LAMKOyNz9VwAAZp1GAyuV6A8AJ1oFBjPyCEDdapfbYMYgXtyyQB7iKwMAM2XDrAkmN7/8zW8blz/08LoOecDRRbk31CbzHMghViCgpLp25QKWFjBsfuuN59GDKC5PlBGAZAODG83jhWfFcpkyAGYKo1izYXDDtVG6SWntAYB7u3DQ2Oge1AgA2FH9ru+PLU1qt4r6eQDA/vVPmfu0jme+o4sjDAri8bi+zM3n89ufYL4K9SMEmBGZRwDH2yaTfsuy4vF43/G3ZSnxBQDzgLlt157XOjcsaGdm26xeZCr88LoOvlyBNXW5vWXxmimMctvbVfF4nBbr+9rUmQzpAUQuzNLOspi/x77jbxeLRdwC+NJm1fhULms+LZN+vniIRqOfffEVQ46p21JS8Ymc41vy47GbeNWrpgAAo+jv+v647nusOpikwUGlYhwlA8C2mdXt7oNHX25t4LJxa6ll/a7vj4+UhxGHBzUeAXDjWjwexxwDvb781wwA254pjCaTSWXzQbSTzy7QbDqd9krlMwIkk0kvb+zGEWCmMIoxCnSmUqlkMvnuuQF5OasDwLZLUpzS1csXdb2jIiWo8tXLF+k4/9XLF989N6DMd5URYGp8KJlMgiraLZEzIU7KRCp1ITDDeTAlUcqy7VuJRAJlJRIJTpj5IhK9ajOF0UQiQVWbGh/Sq6YAwNZkA5nok143AFgHmEqlJNkoGQWs9gCQxV0PewFAZrceDmYcUiqVEolErvpHHwF0kvQvdVsghSf+sqVEll+DNbeONzlPr7A/kbVXhDU0NExPT09U80xOTqbT6bGxsWoSsbgjIyPRaLRKF0Qsejwen6z+ge1dVUROTk6iR6wqFSYqARJOTk6mUqnJycmqigtG5OTkZDKZrLasiYmJsbGxRePk5OSkPibLUKk9AJqbm0ul0nQ1T7FYzGaz1aRw4k5OTubz+WKVDyZO1bvhYuZ6xWKxKjqLxWI6na421fT0dLCExWJxcHCw2uKKxWIqlQqQKljVpqens9lsgOKCEalNnGT5t+8JAFwlVPZy/fr1YLZAxgsyFiwzmUzqS+es75PL5WBCt2DmSoRgA7c2L1dy9XyV1wCekbQfghHpP7vQCnE+zM3NfZOnQMHWAF67QF5MxHdf57h+Sdlqyf3Aplr+piOkDgCFp8Fgoy+ClWy9Xv37cq9U/igNOAIsXb0pk8nAoY2yDvYFQIn5u/z0hk6rNwCYUcqZ85fk3RhKrgNgpjAai8Von2RqfMhYogKATCYTCoUikQgJ/dXLF/UNVh0AVy9fjMViYgOHWfXE43FFEaNLiUIkjFhoc5NqpyScKYzKrEAmOjO1EYAx8N1zA9gCUjLxKsu29bqU9LIUCpEbCANPrl25oPPfAwBMNso7P3cKEmMdMo0A6D99HITpXEWyewIAbNDiMrPKAQC1Likyifs+xnD72the72udG4x6AB0AU+NDoZ2t0PtgHzqZTOpWJTIAMLdhu7qNLdAb4Eq/h9d1KGoEBQDvxPY/vK6DzIHeeuP51u4/MN2I+1C2IiXY9n733MD2J4RKhOvOlFTaFIjpBI/FzwlWsNd3zw08qW17KwDY37Fs98Gjb4Z3cp4wly1SJuUWUIiE/ZVkH2UzVYC7XhqFTm7QyH72xVec/6vAn7Jke9wPgGPHtPGPTORURlMIqPa4us2p2nONqm6k9gDgvpnY1aVVAQAKjrXLXQ4CqAW8RgB4uXj/7BHINMVHQAeALV2TRjpFMkqh5DIAstlsPp9n7SQAAPutM+cv0YCAqZECgKuXL6Kfsyzr3z77j6WOO6AF/ALNFEbRY9EFKgdeXLlh47Oy2hV0uoWSKRwckwSmFHd05AdeXKl0KAoAsMsuXPrccmdC/DAYNcwURgVs2I67fvreCIBP3jv+3ceYScJnX3xFmuAFbYE4VJbR9U2UiT8A0JX8ww//ngOAMWQ+fm+oTTFgqTEAcD3JP25+6q5t4+bNykaAW/Aasq+tOgCQPwKlVpUAAHEwDohZitPkCgAcD1wcAHSj65qNz717bkDGgAIA5MWGNdY1OhKpy4pbjh0C0HhDhdusD2t5hRGpqVpNCRkbucSzK8bwKFKiA+DalQuNyx+SXMpRJg4xRlGeGh96Zq0l21CsXP8zZRakUIhKTU9P44odauuF7ghjStyPx27++qfsr5yJ0mrKFAjWowQz6Lz122NrDAA+SM3i+vnK3aLA10UoFHrEsnSrL68pEHghjBkN1xb5jwDiPjmDlyt/AMDc9VS0R5kF6QDg9Wrik37q+J2uiIRLkRJ0yZa4G8+yrDUbn4Na3V+8bPtWS5NjoUS+rhh+/Gy2nXFDculzy2jm5CZyNpFI8DUDu1b1sy++QufFbHXcKHWnYuaflrXswL7iNdNbAAAgAElEQVRuuEUh0VRGYGUNIMvGltf7eJdXzoTYqEyB0K/98je/XbucXU7FRJFbizEi3VO1GgOgvb09xB+6mriSEWCmMJrP50dGRp5rVK1QUEOPKRATpkPHTjGzU3etkMofAODR2q3diURCkS0zAKw1OEfW0sSsen6+6altu/bIywAFAFjSHDp2CvYCb73x/Nqt3YxUt92eIiUw23p4XUcymcxkMjgkzifKa2QPK2qv7Ny31ZRIJM6cv4T5ZCKR6HjmO1LXzrjiHgGYX87dB4/2vNrJLZQYhCzLyUSWLYXI/R3LWrv/wK0en/6SezLFSkyZiCqpJiYmhoeH0S0KW6Bl3CjdZeakAGB6enp4eHhkZORHFlsUzRRGKRNldiePAMViERIFWyD0lfF4XJgGlStXYwCQuL97bqD6XSB7IHFCGbJBqQcAmAVRPB6nTYxytXjICACyLrx6+SKUxOw+EvfWkw6AVCpFu0CZTCYSifQdf1ue/2SzWTcA2Hl8KJXFfsVsKpXSSVWk5NqVC5SQdqvIEkmuoJxwanxISYUvlAMldAOATd8TiQQMlvRMKJVcFv/IdoHePTcgdrRYJvpenJYK+c3SVhgqqzBfAQDRMJA4Ic15WCbSK4slA4BSkV0TMUTZMLxXACAkKAHfbVAiWw14AUCN534vlUq1UoTBBR0WuwjLfX+W33TvBoCbFO83DynxTiB+CZZQA4DIzvd/sLL8ZcurQC8AeMWn7/eCyIB6AEXo5VeYQhSrfGAKUWWi4uKbQsh+yyqhtlQqZTKZSmLqcWBooH/3/wJTCP84+q/BygqWikwhdDL8vwQrzjhuEKhqDwAYw01W+WQyGViAVZVuZGQkk8lUlQSRcbd7VQmnp6cDXP6XSCQikUhVBVFkmJrRa4UB2JlVGJmiBSsrWCrcB0dFVx4IVtzXYAxH8Ko8EMw4JPAUKNhgmuVPrsonFotVzgc5ZrAJxv0/BbJtO1hzB2s1fzbWfgRYzDWAcREsy5BXOBgrAQD5b44/9AWLB3npnMvlAgMgGJGLCYBgFAZeA/hPZrzauvYA2LZrD3YksOMrLwDYqWSPa1KxnxOPx41Dkr4IhjUO7QNgjU+vqK0OAJRC2w5Ipe8CaS03i2NZ4swUO1ukb7CQoCOAC+7D4TC8D+Vyub5e5heIecIRjxEACpGVnAjj9XW2YlB34idVFt+NAKCtEmwKGauG5PLfa1cuiJis6Hg8Ll6dWBobmWceuHgFVcZW0wGg1EXJhEgyAaBsoYRzZAo3an8mGJeLTI0PJRKJqrxCfPLe8YfXdehMRPU0ADATLtLqcdcJK3AYX8aADoBrVy6QLRCOSO8I9SwIgN6965u3dNEW/v6OZTtCPfqOspBq9h8K46WrN/FegJ2+hwFFBQBgyo1j8XOwUGKarMYWXjV/tyizzzUylUjHM9+BUhwOhfSq6QCAPgTqgucamVpAv5BGF2XsrEPLhnAikVAs9vRUJw93EsNR7oJ6ANxi1ryli+oiZ0LSb9wGZaoYRw/onAl+UmgYKWHtRwDcDsYuJjA9XiPAycOduw8eVXQ9RKUGAPYLeSIgVaJyDFwHgGwLZNt26xLmcUn061SaYvrCFJ8MV9woDYqqu26XJ0gpAwD9/bvnBkZGRqA55sqsJnirppjGEQDmny1NzHaFrvTBrTZlEk1OR6bGh17r3AD1UKS7+Vj8nHDDX06nAYAZPvzDD//+4NsXuByzOy+4aLpcHumi/HJrQ3NzMw74/y1ztnlLF530pcL0VC80M2UWGP7WG8/DhwU1HxLqI0Dv3vWHjp2iumx/gnUQeqtpI0BZ6U5aahZwKyJrDoCmL20b11OHdrbqEPACwPYnrF/+5rf67VRgij8ASEoUs6oFAMAFGvM0edxQlayiPXHtHJeSVewbTy4nJLFGIJfLDQ8Ps867sQWBFd//4Y9/8JisP/YCAHe7sGJ6eprcopDljCBHQSn7DN0zRvkfWQ4/yYISCRUAwHHa+2ePHHz7ApN7bssARbIsYYooM/OE7QeYMPH+9eThzpXrf9bSpGrxlVTgGDG8cr9ArUvkujCxRiaKzlQBAGwodoR64LcCWNWxXXMAODLf/+FQ5bZA1KhkxEJfEPAHADnA2d+xTLaKWwAAogzFL40RAEy2+K1sGO6NBkgKAPL5PGZlmUyGdGeYCNF1ZjoAyEYVJq50q2HXE6rNkixeM4VRNCRr4P/xc1EzBgnFPEEGAAR998Gjv2jbuHL9z3h7PS38w7EAPXJZkOMdoR5uobSCpBCcoSRGNuJXWAHJtkCyOyN9BECqT947LtdFMaHTpkBO9w/Lber4GX/cVjM1BgCGqlgsVpVvUN4Sy949N0BTWJmPXsZwTeJ+WUyUYVkud8n+AMCqI51O01qCCnW1t80ub8U0JpVK3bXtF5rZbFv2i4aEMgAwBbIs5rYoGo2m0+kf/+AxCI1sQqcDgHdRVjqdBisk36CqtZ+LSD4cnTl/CecBeCar0um0MA6lmqm2QIDia50buEOnEtyeGpc35SxsprwbHBxkZxsaW2YKo+u+x+Ykb4Z3+rs8+lvm7MPrOojhTCitNWg1QpGtnQfgdWlKpVLwl6pkIlGlmEIwL3fS2QaGhzPnL5VPWYiUNQYArNMymYxxBeyzCzQ1PhSJRJRtBEGk2S/QqSgb3RDn6uWLkUhEWeMbASDtXdjGVGrXdacQiURisVg0Go1EIqxE7h1an4bKAMhmszAKxN93zw1kMpkD+7rD4TB1/zCg0LdB3axgVjeRSEQWEVTZBQDuPKevt4cMcq5duaAzRDOGcxh87coFrBzIo7JiMKOUhWRT40NY9VIqedakspGnURiuvCJbfQRAXcj0zZhKGwGYnZjMkKnxIbw6dRb/ag8Afd4vf/FaAwh6zP+NUyBzVOmrEQDS755BY3t7xhY/KACA6ShdRECzoLoeQDDM/F8HgDme9jVYq30NAMC1hKVqHng3qSYFiwtL2mpTwT4nQKr5eU61TyaTiUajARgyNzeXyWQCEJnL5QKkClZWsFSwZF40Iv1hU3tNcENDw8TExPVqnrGxsVQqhZvhqkl3PZ/Pw6NWVanGxsYSicTY2Fi1qZLJ5FiVz8TEBFRI1d8AyGytAxNZbdWClRUgFe4LTKVSAaoWoDhcv6uNJeUPtQdAsClQMOOQUqmEDdlyhSoL+fcKXnkEdo2YC/p4UeLzPRiRwRjiP7vwITJYc98LIu8XADwQawB5h9GndZWf5CVBVjw5/oi3rFccJatKXoMRGUy2gqUKvAZQ9ACVcOOemELgGOuPf/CYvPalsM8IgFm7kW4dAFPjQ7D/Rvyp8aFUKkWbQvhoWgS7PAbPFEb1VF7bF5lMRt7lkOxnHJJ12QKRlAreoekVyRThzuVyWBjQiXv4ZSEwUMDYv8L8m+dcMvrN1om0bbYbJjbQZtkmlft8nBdD0uk09oVRESkThyFGAExPT5NO18h/IwCK/HHytW05E/roBgBzG55OpzOZTDqd5jw3M8TIRsoz4AgAawgSejngAwCoWqlsOaABwLloBGpOvqNs6Z7mdQBcu3Jh6+bHoU+B4iYSieBkt1yc0nInD3c2b+liim1xwBy79b7HbbmrHKuJbQdz9eo7sf0r1/8stLNV2SxXAABNGZTix+LncrkceWHJuh+95Zg+BLYuXC1gdIevAwDqMNQF9y3AE78PQ+Dk4nd9f4xEIjgViUwU70wKG5HhC82OZx7wUG81IwDeeuN5OXOYVMgUatugs329TAPDzuUy/jNboN0Hj+pV09koZxsEAFCpyEIvhz0BoFkWyHRoAGA/ki0QXT3S9qjLq4oOANkWiDcAs3hZ0Mym//RxbP/Dn4dt32qyrEcalsr6S32LHfsYuYF+AED4BWIaGXmkUgCAG5ySyeTa5UyPMzw8HNrZuiPUo5zAhA5BZhEUtLhjiu5H0T0maQAorfseqwsHwCyIJJdElL8iylzcV01PT4sIpecaKRPxzWStxHj+d22IQbZAiiZeBwC6KnH+mJsqOZeVlMvSAOD81LqEadCJIbqpQe0BwFU2TH0jyz2FvQAAbat+9yjq4Q8AxEGPQmyybdsfALZ9i9+qYlnWCjmVccS3uT4YnTfsZ96J7fcHgLAqg/McknvVh5QCAKgLuD+BFfOOBdD96z6IdAC8tJnZmUW6m0lhZN8p6P6qFABg1IUt0DwbcfXLgqpxPtQsWbvc8QukZOKIngkA3DnPCqjPyLpJMWrQAfDWG89DwYrZo5wJlWUEAJsauDy13PqR5iqvxgBA979h47OfffEVu3xTe8wA4N3//NSzN9SmzCtQwwUBAOlXDL/8AUB2MicPdyqFKh2esDNbc3POuUfx0LFTWzc/3rylS57QK7KVz+fx64+4ZzjR8ZODIKftFADAc8TIyEjPq51wo7Jt1x7YDCtX2sgt50wCj7/9zFoLt1TZ9i2jjxmZSMxb5i8JDu1sbd7SNTU+ZFnM6Jrl5u5idYYw6nmr8VTMNiS0s3V+jid3JUoqdP+Tk5Ow8CMjUMWEUQEAuv+JiYkDL648/Ke/8IZ+GpmUoc556V4D2LbNrCGkOLde2my42U1mo9Mk0r+qp0Dgfjgcvmvb1d4RhnuCFVkEMUYAkC0QpB93fknj8gIjALMWfLozn8+j75RqrRpawsoSvhBx70MqlXq5taG1+w8+AIDzHHThN+fsSHfz7oNHWafw0GbZ0EAGgLi9j11AtnXz4/DY07ylCxNl9xKAbQ0RzXTZUUuTM+C0NFmO0ZF7RSsDgFK91rlh7dZuWHqfOX+JNZzbZlgR5ZdbG47Fz/EO7plisYjbmV7r3KD0CEoq3kzL8vk8jjowmFVyTzCH2eDgIJqJg7acCXFAHwHYMFXu/ksdz3zHcW7pZojMRjk3hKsGAO4edcyAte7f3xbIdRu7mxYjAPp6e2AhcyraE+FPKBSSdzCMI4BkC8TmaaFQSDdAcrXcnQJcQ+NyeZq+5wb6pd6FkSvLFiffuU5dkMRuYHesiaTayQDASZr+08fb29vJ71A4HN62aw9tChEMjC33r//3f2c/vYG71HF1u3JIRSOSkUK2QEh46NgpqiYodTFE2B0p0SgTqpySCgWFQiHiG/gv+OOkU0YAnI44sK+bmomdapIyoeKUEYDsalFuOBw2MsTIRsozCABMYl/+Zp4CUYEeASMAPOKWPxsBUP7ZO6S3nHfc8i9G2Sr/7BFSAIDJvXwdAVkTkegj4N9yHqXpKPWK6PoejCHBUukAcJHi/aIAwDui6xd/Nt4vAAimGgysCfZniot/0kswJau+vaMIutcrHLBK5VcUDEZkMIYES/UN9wrR0NAwPDycq/Jh7ju597Wq0mUymQC3RObz+Vgshj64quJwZUZVSVBWOtATiUSq9UQ0fxlCPB6vtmrBGBIsFcbDxWw13Gltezz1EcCDMabPi9m52rYdi8X06ZPXcCF/N9G+wLdgfXmwVN/wEaC+BlBkLfBEeTEBEIzIYKke+DVAM38a+FNe/IqQBwBmi9KjiIjxSOTc3FyxWJybm5Mis0ykV/M2KBS0iGbKhP1iarlZsmBhLpVLJXkrE7mZFsFqKtRSJtJUFvtdqp1aL5ufG9QBADsiqAvy+TyOnumjhFw6CtKpUuJ4EUnRZK7SRyUVuI2yiJlKk6Fq7rG0LBulUsmYCUrUF8F6M0lcdcj0H6aqngK1dv8BJGL3Soh9+b8ZAHyvt6GhgcUr790SJ/UjkbO4f0nWfHF94TJ5Y17fBYKnAPI9oWeCIpWWg5oJ1zrATQ3qI5eub4NCzWRZpHxhymD+rJKJVMoCASiRLkSxLEfnShyZm5tTAEA6hEPHTuXzeeGSg520VjBAmbAA5zyjShwV/1vmrHz2HJENRLKES6D2gg0ScZXyV1JBXYNW5oY9t9Z9j5W8+le/lxmijABQhDmy0fIKuIpXhU4FANTW1EwggF5BZ40BgBa2rGXV3hEGal5ollV3xEkdAOwnsgUiowPLelpmpQYAZhElrmf7CXInvyPlwrQRoOOZ7zCucVm5a9tP8tumWKsL2zikVUYA7EOj/e7aXIXsVq8ilSIl/COjE3dakesEYUrkkKkDIJ/P8+stmFIW2jeok2UvLFn+OFnwf0wmXLVQtKdOXJ1I0qPDmPTmHDP+U+z89FQsO87Gz774iiyOlEZXAEDUulqKZ6Kck1YAAI5JVLHbQHQrj3sCgP4Ph6Ah5yW6/phHAF5L1u0JSymqNgJGPUAZAJwd3F7A1blqAHByhasMvJQzkYo0thwjj0sw7DrXLlfvG1QAQLCEblt0kytIDYQC9bIOvLjy4NsXnmss+0FRrMH0KRAc0a3d2v2Lto0YAVqarPb29qXcM4LPCAAlt9XYAm0URh5FM2WYE3KGH4ufo3kg8lE6V71qMCpBz03ObBa0BXIu/xNjlJyJ1GiKVwjmy2PNxueahDUE7Elx0Zic6l4AYI1X9++jCYZVpiIcRKg/AHr3rl/9q99ztzZLZBWmEQBoY4pWIQAw8vIGZt1z/4dDzNpPahJ9CgTiYV8wVLiN6x8xCsvDlCIlIG9ycrLs0YTbtJ3+4K/EDQUANPnBrTwwCfG6y1UpDsMUL5QZxq77nvW7vj+2NIkbWkWRSqp3Yvu37drDLL2l0YNnsoogYYCN6P7Rc5PdXgUAmMU1ZA45pu5fNYXgcbKf3mD2GtsPgO3ZT29sf0LttmoPAJ/u3wcAjH0e3b9xEWzzqQi6nJ5XO9vb23++6Sm6Ww6c0gEA8ZJ7uEoAAPYBnOiMP/viK0BCFmVlBBA26www2U9vxOPxocLtBQEwkDjRzh9n3n+n0GSpHtd0APSfPr5h47MbNj671LKWrt6U488jpu7fLcq3cH2Tw3wuNJic+E9m4IISHMDZgKHCbZ0h7rJYm8hHPsQkquQ2WbP1KRAbPKW+Rs4EDY2/8hSIxkzO8FVXL18EV9ncUgLtPTkRlv30hliBuSY/ePGaAr0T2+/V/XsBQJFdXucVcg+kAAAtJGhyfM26ZpaCna6W42IhUrElBFm5KgQrAJgaH1q7nKWD1TQ7GMCeFTL8zN0kJ+NJDhu67VSZvCprABhRDw8Pb938OKZAyWSyeUuXUc0sasn+O3URUyAsHB9e10EjJCK7GGIzJ8+oGjhQcdXY1oU0cb+FTYjdB4/KJOkAOHm4U5pcKZmUk8oAkO5oXCY3k+5gr/YjAMmKMeAFgHI9TCHjFMgU0fVNAYDrN98Xpb1945Z/VABQ/sE3FKwsBQBY3cp/AQn5C4V9yTH/GIzIYKl0AJhp0r4qANB+N394MADwDbYF8m8Ac6Pxr8o2KMm3fyBYcYuZ6huuCQ5gC5TP5/87tkCLZvqyaGY2Of5EIhEcS09V/KTT6VgsVnH0csRoNBqAjQEYgg2rRCIRoLhgFlx1WyBDJxusw3PrLw3ZGj8FK2vB1ZuxLNu2U6mUsivqP2LABjHYDbCBqxZswA824/InsmpNsHHeL3+srwEU0QzWbD6rZyV/5VW5A3xB6UeEYAAIVrX6GkBpMvZqXAS7DYEMqSpcBOv5BGs5r0Wwnr9Mq1dZ/qmMAJjjj5y5HtYBkOMPIcE4PugAQFn+RBqrpiRRXrHDq4+lSjTlFdW8XxbB2OabKYw2yT2/CHuNAKSSVDbgUDcNALPcNUBZV2rb9sutDdIWG0unA0CoY9nGPHLGF6VQpeWweU+2LnomyMoIgN6962HdRJkoKi2lLGSFyPDngQ1H/ai0kpA2eWkL//2zRxS/FbZtKwCAEo2uLCA3RIeOnZKRoACAVUo8H4/dhHaF+IMqmCDqWHCt3drN9Se32DldfoWCvHmtjwBu2ZiF6wqRCZWmaoKJKrmtdTbWeArED8XPwo6F9ssFr9h/MwD4XvvNOaYokf0fUeU0ALBfZD0Al5ifyGopEwAc3yQ8MlN8Ql0i/DVQaao16NXLF4cKtx1tkc3cOgiDItdFWjoAnDbgB8xblzD9MSloqDBFjvl35ncIPHQMZgR/KJUuXu+fPeJmHaus0iPoAIDZHJTHOJHMPbIwgyIfAIAM1hGwqjnNzRHIbMDoUarG2c5ul+p6grFCKMKYXyZ5q14FgKg7FMa8lCbKhMpSNcGCKtYEjnml6pAGaWsMALiOwmk92GbJ0u8JANs+8OLKX/7mt/AXINcK4QUBsP0J5vdrIQA4GTN1D1cHvrTZisViCwKALEDldqJMiFoVALzlmIUSk5KyXyBFpaVIyXxuvXvX7z54FLZAXGhWvNK5nfp1Kk5JiF65eUsXRjOu0npaGdkUAJANxbH4OZw87nmV+cCDQdFCACgpjcVETdLX6hCFQ7FQKAQhiXQ3YzBc0BTipc3sjjBhDsh6B2Si1E6ZAvXuXb9t156tmx9Hv8DH7SYlyYJ7CVUvgrlWrwTfB0bfWMYRAP1iOp1+M7zT3Y05ze0PAN7RruJ30jwt+6XRp0BkoPbZF18xEfm7NrLVIcEytRxzMsNLcQyAuVyq/asCgP0dy7qO9Ds9EAcD5z4bQCS9pjra8FKs6elpWL/gSlBYdyqNpwAArjmFnR/DG7w+ymUpAMjn8/+4+ak1G5/78Q8e233wKEohgyJ/AIju32EbJmBKWQqFrGqNLZlM5uXWhv4Phyq0BeKysSSTybzWucG5yU9kokwmFQDAC6Do3ZgTtHA4rDC/9gAgQ6DTH/zVaBBqBABvdTadYAGTRZA/AMTEiY3FchvoAJAF9+ThTtjPSCb7TnO6W07MJcRYLGciw8YNgFs/3/TUho3PNjc3z1v1ZD+9gYF+wSnQ+2ePEFU7Qj3b+WwBN7rK44+C0pnC6LvnBtDkq3/1ey6O7Ja73r3rlVmvvAbI5/PlK1wbW/pPH8dhJm6M3UTL4mw2q6wBbNvV/YMhMufBFjcbyzf2YV5X4RSIiQQfWFig5RVy9kjJqQl0ANDYAnzCGEnpYWs9BWpsER3VrNEiyAgA2y7BLASyQlWigAkAzJGlw/Q7BUy3lLopAAAXaEom5ks0OaHSzL0yLO0gwVomLK0bAE5uTDj4tY2QEsVcT5HjMgW2DTBTKuHvrRzFLV6CgYL/b4Z3WhbzjSWaw0koAyCXy+EeS1zNjVnQ8PBwxzPf8V8D/L8bV5q3dCFHhSHyCOymkJ0EELPiVYyqOwVYOinnWtQ1gCQbrLnLmaxRqqYBgE2WiB64adMZUmsAkGh4BDwAUG5XY8gEAGNE10cFAK7ffF/UlvONTD8aAUC/egWCleWDHK+C8F0GQJY72tD9DuX44zsC+Bfi/BqsahoAKipLWwRXmurBAEAw1eAD4RfIvwF8mjFYQl0TnOOPLO7y7B8g0aZAPnSVfwpG4TffFshooys3gBLO5XKJREJxDavEMb6SXyDjr14fcXevIgRekel7LpeDXyD6UkkgWFkQygDGcCgugDehYHZH0Wi0WjZms9nBwUH4BaqEgRQnMCfrtkDlHotCwbouXX9JGfoEgpW14PaFV4nBiNTHDZI8rwB6BC8y/L8HG/CDzbj8+V/1NqjHzL/8ub4GUNo+WLMFXgMEW6ikUikvQff6HhgA9TWAIiHstb4I1pkSDDk1AYBy6Te9ymD49gIAbqxnCqMwYil3/jzkNQI4x+rELp7S3hoAFFugWy+3Mp9Cyp63vgvEFQ6WZS3JfnpDhBlZyv6pIltT40O4S4asSm7/57C+L2mULeatSKjiyTiK9uaMHTkRRlSxTDT1iEIkdHyUBPYza7d2y2Xpe7XwFII2ujlni8ONqxQbCnkEyOVyqVSqcflDlmX1HX87n8/j/g7lBKYRALgHSDgCcrZuiWY0uj4CcK12eUsXG5oik7KkiG3Q2ecaWYWcKtwpyLIxUxiFMyJSqtR4CkS2QB+P3RTcBHudv2YACEXp+2eP6Dp/rxGAbIGEVYLQWAmeaABwIjAJ43vzPKKaShdKKFnZlrxw7BPpblbApssWaZ1x2QTfL3ecEQkC2X9djk8e7oz++SOK46gC3DdWGBOWXR7cKfQdf9u27X1tqn8HI0odpZJoBUXLi1ME1LuT+RA0/Tn+nIr2LAgAXhHmMWR/x7Lonz8Sba16IlIAQKpDEMmVOcygKNLdrJj6CQAwtf0jAgDidj2nlXExGTRCUATVGABWY4tt27hRtIobYmyG2t0Hj77c2iC3PQmBNgKwXwgAnEcr+np7Hl7XIdsVagBw8pMbWNgOUFEsoAslemV0G2gSpY80AIDLk7AFwqWR1rZde2gYQZF6WS80Wyu+/8NDx06xulAmbjMbnUjgRNYN/fqnzOGb0Pc5FTQAQMg9sUBXsiojwKloz9LVm17p3A6vW1CoLQgA1CUWi+Fqn4ptgZhDq9/1/bHjme8w2eDUUiZEs1sPUAYAed2CG6K/Zc4+vK6j59VO0r7VGgDcLUf20xuwsXF1/vzFPAKwepQ4YJYoDYYa+gPg/bNHmrd0JZPJ8sDHkxkBAEER4mvo/nXZgjNQ3uExvzcHXly5bdeeJmuBzvXAiyu7jvSz4vgUaGp86Mz5SxxIK+Q66gCIx+O4Emu+vXv3rpczkdvbnXB2+xMMXbJN8kxhFPYzciodAIq4A+oykIwjwLZdew7s67asFZlMJp/PVzICcDL4tIdbIu7vcPw1kMEC6FRGAKTisrHG6d3uFJjdgNu7iQ8AYC6A4t564/ndB4+iKTE5rD0ALMu6a9tQxVcDAGdklFuLwv4AoIEeYyul0gEA6SerFWP3rwHgFnwhou+5OceMFG7OcbMld6/sli26gpLxoP/DIYyKNKATkW45Zh5HMEScPNwJH1XEQ5q2Iq0rIe8X79r2+2ePtO39579lzmKJIqYZVJpmr+Hu/iH9oncop5JHALIgGh4ehilRNQBgXpLAf2HBZZO9E8ozAcB+abPs0MpliURUGqdAZA3VxK8qbBJTIyKj9gBo7f6DV/fvYw7NJcPl2pYq5rUGIHNciDUTlMYWec2nAADCx2KxBc5b7gYAABlrSURBVNzTX/JJlN7YGgCYVEEKMe+nVwISSHUDwCGf0cbXr86pDm3ccMkxn/M4a2VpP4BlUl60ODkrCbG+FOaA/E44RnSTUkGFyE/eO06TAWIjM4ZzY1sBAC7tY625pSvHn1NRNv+UVZzGRTADGPXc3OeXZVnK0RYdALzhRPdv83uCKROHGeyfDACaC1CjU4+ApqQ9jNoDAAV4/fWeAklV0YLGEaBYLEozfoMPcQUAsmftotuRulKgIluYApFHb7zK0xgkV2QLH8lXtp4JIuhl4SiPmyRD7fSEijdwYx2NRKKsUqlUlB6ZABkAODeT4Q9J/ODgILyx01rZCAA5T4R1InUA6KmMXyQAsMOAXrKBalIODwYAgqkG67ZA1MwUqJUmOCceSDzeSPphrBGPx6ncqgLBmlvvESopdLEBAL9AsECs/C+MQyqPj5iZTCaZTFabav4iWzi0qTYhvNlUmypYWYtMZDQaDWZBhJEBw0XlfxeTk3VbIEM34d8rGBLwT8E612BlLbItUDAiA9gvZrPZTCYzNjbmxWSf7w/GCFDDNYAPL/CTsgZYMD5FCMZKn+k15awHgpWlr9T1nI1fFpNIZVUgT5B8woEBIK8BjHU3fvTHdt0Yzsg088fFlK0HDgCYGZLcy68wJSLD6QcWAI0t5FXG4uqwTCZz9fLFH//gMXlHSBsBZk9Fe8LhsNi+LPWfPh4Oh5XNO30X6NqVC6FQCHZHtm0PJE6EQiFFyaqPADOF0b7enkPHTmEPB5ko++tesjWQOEFmTnImhAYdAAOJE/NVC4VCXK9UOhVlRSs6JuMIQNoA255FJkrVNCJvHdjXHQ6HI5EIvI1PjQ8d2NdN/PEk8k4BdQH/wZ9j8XPKHpdGpLuZ3JlQWTQCzCvL2tvbd4R6sGuUyWQO7OsOhUJQovWfPt7e3t53/G1gQAJAqa+3Z/fBo0I2WB0PHTvl5K8VSiMAOCb4zBgoyQZrhXA4LH61azYCrNn43LH4OZu7zcEu7NXLF1kDcFULYUADQEl2eXDycGdr9x9gZCK3gQIArq9ZMjg4CGuIT947/vC6DuQjI0cHwIEXV84T2Rtq6zrSzw1CWCakE6GW09qb7z2Lm+raHrWOxc+9Gd6pmC1pAGAOIM6cvwQVGJydMF9JwqAIxellzTsHEJdrsIPka7d2gyFCDhwy3QlLmUwml8u93NrA9vU5zzOZzPYnFlBX72tjLoD+JfJPvC7Mc86Z85de69ygGKi5y2JUiWZimvuXNjuZlPf4OY0EgFQqxdXGa9DxtzRZO0I9cMGCVoNpAw4iywCQKz5TGOWephx7Kr1QAQBHoiAJTP3S8grJ2FtvPL/l9T6erXNBRM0AYFkWVy6wVkcbty6xLIsZP8m3PGgAKN+aJpv3KPdWKADAdUOwiJr3jdG7dz0siCLdzbIpkQ4A27avXbmwdfPjcMyEZqbb2rwBwI5Xtz7/U5Ktu8KpliyUCgCggjlz/hKPw9jCm4QCRjlmH7lCynG5RaYscCZFFGojAP9FqHXpZjiX4olHUYg88OJK2KVteb2P9wisvShAxSkAgIUZFGdwecTqyEuXGUIAEA6IGAAgi4ODgwgc2Ne9dmv3yMjIqWjP2q3duN21vAh258kJ45yh7xRwKcJsMoabGh9CZw8dsKPUt23YIy24l1DdGqAMAK5H5BpNZrhHHh/MmmBeB05lWTio4dEGCgDwEXr7u7b96586rsV6966XLQR9AHD4T385ebiTNLukDUXOSntjxIDSlIs1qxTam0ZS3Rju85EPmrd0cbcLT8uOsZQBRynL5h0q6UepI9jX5nKfZgQA3R1EvkMYi9w6XQUAJw93Ll29ae1yZknOBJqbLXE5Y/Ys9GhEsskJLr8BznlkZlglM8QIAHTqNFvG1Gh4eJisiaQRQAUVdQ3GQsUI4LIGRRUwDsCJHSgkxt6bEcBi41Tbo85QwALi8R8BiCwCKCqgAwDSj2GORgDcXUXNpgCATXC5kTBn3zLq+AkJlFBub/Aa3qMsy4IBDI0AspQoskW5WdwKhRybKVIilyW6f8Y9VIqw3bpE+IAR+SoJAUgwhDp+GgpEIrctEO96SHa5HyfmdZDkjFKpZckDIPXBFBDJjABQRoC+Xtbxyze6VgKA8mgjFeoFAG6E4nhME5ftOe4cazwCtO39Z4AMFikzhdHJyUnFPZY/AN4/e2Tp6k3Mx5tziMThpQIASP+2XXtisVj20xsYi9EnyT2QAgDbZvex7Qj1vNza0HWkH5IdjUbF5ES0m2oOPTs5OTk9Pc34KMwYt+3a0/HMd5SJsgKA3r3rYXmLPvjkYeZ1kPlKctuxqLLFWxRUfTx2kzv0g9O7n0i6fUaqkpC6f14N1hn/ru+PsnEoqucmstT2qDMdx6GFF5rZ67rvOfeaEUeUsmDTT4MtnBA6yw9Kw63ise0jpkBNWAOEdrau2fjczzc9Ne+6EHiAq8Mz5y/hsnuaAqGNaFrFG5oPv7yD2LZrj1yoDABqUy79zNI+FosNFW6/f/aI0yjifEUtR4CV638GV5vo7iORCFlNiQHA6By3lE6nqSudGh+SX8FPBQBXL1/MZDK4HwXbI1PjQ6lUijiFVBoAmD0O65aEa+iZwmgqlZIxg4R6e+Pie5FwFkdkpLZmQbdssS+gkwRXefUuq8RsbwSRRoboAJgpjLrtahhXKRMiVSOSMQTLdB7HxR9KpTNkpjBKTWbbjCGS/DnpaATIZrPpdJr2eeDBAV4tcrlcOp2ORqN0o71rBLBdsjFTGM1kMoIqtVCZgHQ6DWFIp9MkKmhotAIRX0sAkJT7BAwjgKiQz/9gxiGlUon6Ep/M9Z/09tbj6F++wZrgYAwZHBzMSY986xGGAvpR/skNAJ3Nnl+CEbnYAGhoaJicnJyo5pmcnEyn02NjY9UkYnGHh4czmUy1qSYnJxOJRAAiU6lUgFQBypqYmLj/iQSFieqfeDyeyWQmq3+CcVIaUgzQqm4XyKfjp5+am5tLpdJ0NU+xWMxms9WkcOJOTk7m8/lisVhV2mKxmEqlAqQaHBwMkCqdTlebanp6ulgsBkhYLBaDERmMIaCwWP0TjUbLF/RVE6qWk2CIQfDFp3sCAJF5Ff+vX78+NzdXRQIedZGnQNr0uiJ6gw3c+hqgosJMC5VKEgYj0n924VNuAB97cCnnk6fXT/5E3i8AUBbBXpVRvpsWwUoU82uw9q4DQOFmMDbatk0AkE2GcMaAjuDgXA5ZEMGMVCGgktcaAqApnU6nUinMdlau/1kmk4HHGJr/GBVh/aeP9x1/W2zgMA0Ldutl6nUATI0PRaNR2uW4duWC/Iq0JgAwI5Yz5y9hE0DJhEo0tlxuoF82rek/fZxKR0IdAAOJE9FoFNeF2Lbdf/p4NBrtO/42bUF4deRT40OTk5NEj7RLQ9+UbdBbUf7EYjHGvTuFSCQSjUZjsRi3Tymn0ohkDCHjn5nCKPhTTsBDOkMGEif6jr8tNtBcmVBaKVUpGo0SJTOF0Wg0SszUWwEAyOVysKSCWXUul+vr7QmFQul0GntHoVBIduNOs3mwXdDG9uKi0ah4ZaZBEuU1tQXiVeKmEJbj/wP7uL4AKEE1CPpmCqP8dQVtHYKbCgCw8Z9Op6EvY5vljS3YUYYmCKl0AOzvWEa2QJw25tSA9oxNLed8g3KUFMZQRCiugXTZgmmNsyXHN/ixJbcgAF7aXLbhAQ9F+xGNCgDYzikuX4FVD17XfU91FqYQub9j2e6DR98M70TVNlnMzOnl1gba40d5kiizD3AmwFuKucmAmRNz3OCh4pgpjHKNuGPfMTU+1PNqJyypULtUKvUIdx2A4gCATCaDbXTYzIV2tjZv6eJfVuRyuWQy+UrndtkXiwCAyxbob5mzzVu6IGN3bfutN54XVkyr0Ao1HAEkWyAu8qRs8gWAalPAOcL0kfKjAICMJWH8Q/2loi7VAYDt/K2bH6fbdQYSJ7772EpFvJT2tu1b674nbIGEEcQv2jYqUqLIFpp2cHAQjOagZcYwcr2MIwCPye53waPYd4jPCgD4Z44x6gJAgBhanXQKkfCWQwpjGBf6q8ZtLkbUuHe56d7pD/7KOwVHxFGYzEZeqfKvVCJZbVCApkBkLgE7v1gsBvtiL1cUAgCscLIF4pQwC9C1W7uhmeFtXbbauIcAOPj2BbRBzQEA/mIcINnlSlPXRZFGAOQG+huXPyRs5m71vMqMYSgTveXoXh1yoADnK+/E9vsD4G+Zs45Wm3uFgPOi0M5WxYZUlhKUjhtgd4R67jp2aZZlLSPEIo4ROYqXF/IIQkl0bR0UpbDqEVZbzIZRMRFXibxTwPU/GANnCqO/aNvon8oLAGSQIntwoTUARnUo1HBsILSzFTZzujcuCQBlx1i2bc8URjF60MD71hvPUys8qACA9JNjEi79Lkss/ZpUukgLsGTLKa5tJQc1JChyeyPytl17fr7pqe8+thKD6S9/89sf/+Cxpas3yf2r0rlSbq4plmS7gghyWWSJ+aXwHwinUca+XEko2wLRDbAyeSjORSQRwwPcaIWNPAtag+r5s+Zwm3krEPUCAHX8sn8uIwDy+TyzkeHHTnL8Ifu5LH+MABhInEDvRuaVzH/M050EhpoDgJkZ4Qk2AmC2XckaoHlLVzwez356A9K/I9SDV7S0DgDbZs6q5g9YhHa2bnm9DxCKx+PClw6lU2YXpeHh4ZGRkX+J/NPard3FYnF4ePj69euvdW6gJQFSumSLz4zXbu1mc18+Amx/wrG6ob4HqYxyHIvFYDQK2xWYlFKbGRMq3b/Re6k2AjCvg7sPHnWMrzgMDh079VrnhgWI5K455SXQJm3QMAGgPK+jKRCwDQsa6s50AMAh6bxLslAoFA6H0+m07o1LBgB1Ou/E9j+8rgObMbiI2rLY6YV4PA5g1BIAK9f/TN722bZrT4W2QPF4vNxX3SnQdgGJpLIGuHr5IjSMkPiBxAn5lVKZpkClRCJx5vwlAGze7bOCGaNs4SN8G1Lm165cWGgXiBmrvHtuQAhuKZlMSq9OTioA+JAtU3X18kUXfwQFSsKZwqg8kZsaHyqzVCTRAMCmB4lE4t1zA/B6NFMYjcfjlRBJdvbIe3h4WFSzXJhM4UxhlLZ9sBKjV70VCACZTCYcDuPwAM67hfmDjaBEIkH2Rco2aP/p48QNMJC/3orH44lEIs6f2gNAdP1+/wPbAtUVYWXJ4iFZvJSffF6VYconpvxTsLL8O1c5fyVMAMC8HzMc6ATIiAhqAVkPIBvDKRn6vPoTeU8UYQFMIQYHB6syZ0DkiYmJXC4XQD0eTPOfyWQWpyyYQtznRAYz1kDD/XdMIYpVPv6wuScAqFZKpqenBwcHYZRfFQwmJiaCGRGlUqmqCkLkTCYTIFWwsqanp4MlXEwig1E4OTmZzWarFZJisQjvXckqn1Qq5TM+3BMA+JTn9dMDYQ69mLMLZYnpxTf9+2IS6T+70GmjL8GamyZOmDJV8hcaZSpXD9wvAFAWwTqhxi+mRbAxovox2JR3MWXrgQBAMDYGdo5LAJBXDoBBjj8ECfm1hq4RlyUSCWkXaEnf8bfj8Tguk6J1sb4IHkickHc5pDV7WS51AEyND+E8JEWaGh9699yAvH9qAoBrFwjbEe6DVCw/Y8s5Xl7Y72omoMEIgHw+L0hSNoUcwtWy7hRisRi2KbBPYmSIiUjHzMnJl/1jmx60GeJBJLONkbd9yOOGlE+ZIcqOjdIKeCVVtFS1EjaXRJ6uDTFsPdGWmgwAyIbYX3IYKNx0MyMamXIAACZD2Col6U8kEpFIBCtmXGpG20c1A8DK9T/j6wnHFmiocBsGC8pdARoAbgEzaKd3YvuFJwXHVAMsUwBg2sIv8cvPHGcvSKUDAKYvkt+b2ScX2sBGVrItkJaJ06w6ALDJjarhTDDbcRenUZFMkhL+gQMgkUg8ye/8gx6AtrGdkvg/d0J2x9ShY6ece4R4BNwYQJvrSKsQ2bt3PVz00Ma/+2yxUyCVdfXyxZYmx04JtSNFClgktyalmimMsopbjinES5sllQhXPlAmtm2XAXCnwBUg7DoSGCA5ssEZ+OufSplwMmkEiEQiMJeAxM/3IPyOw1U4dwbtMhkR1QwALr9A1pJ4PM7conCfHOzCBfFoAHDZAl29fJGLS9k/ClpAAQDZApE/iJOHOxsaGpQrsXQAkGIcphBMg+YWRxRHLYdX2y5tf4KdZobm64Vm5qCBVJgijuFMsGSMQDVSL2XSymL5ker36uWL6FCFUwkqrdwr80/OpSmk1UYfQXeIUDIFAK1LmNVDWU3LxVEZNJTRhnhOHIA5A8uEMbNcQblq5SL4+CncaqwhjRhpgssAEGZXpNAoFov/Evkn+F5IJBIikyUYYwkAw8PDMEMk64kV3/+h1diCLdStmx9vZm3ZBcvqewQAR96zn964duWCEH723x8AaCdmoOKWSwUAiIYu57MvvuLMXQWvHmK+waIYAQBbBm5a49ynqevd5JaDLVDb3n8mWyC6i0UYFDnSpcgWhHjp6k3MrqYsWMz7mtwrK2UhL1wN5uTLLz5S3GQoQjkfszfUBj5zMx4mhdlPb7Q96ipLV4RNjQ9t3fy4ZTkXEKFqO0I9JHOgQSaSAEBgc8x4eB0ZDY0tmLTIqSQAONU68OLKg29f0G2BfABw7cqFtctdd9riIjbkSADI5/MAALTFlrUqkUhY1hryPtR/+vhiAMB4Vd6CAOAXEK1SGkAHAMQLktT2KLurhzvfc1lxaQBgLg9E/7qMIZPBbFZX48stB9ndEer5RdvGpas3wcuL6Huc0RkNoABANuO5a7ObxXhfTkOBIweusvg36v4Rw2jmpACAixczNGCBv2vDJU7RaHSpdgWyQqTwAsSNFLgEDxVu67MgmUgCAPXZ75890nWkHzeQztNM5qtyKgUAvaE2mGfSMEIBDwDMCl8hZQZSJmCUEQBNlrVm43OvdG63LAsTrfb29p9vesqylsEPRc1HAMcWCGsaLObogugFRwC03LH4uXQ6LQ/ECgA4N5n1NXycjIyM5PN5dO20AjONAKxfJLeefABZkk6nF7QFwkj6Znhn85YuDPHH4ueY+bvbeZEiW5JbT2bdjdk2S+V21SZLCRpSmjg515MdOnZKYYgCAGDmzPlL8Fg6UxjFcL9Uu5JMIRL+y4SpKfMAifMAsp2PUhb5n0ShqVRKNltKp9Nk2S9XjSBq27MYrN49N5BOp7FETCaTNDDKAJD7gn1tlnDrydaHlEkqlcKAIwOA1gCQQG6Ss2T+1AFeD+zrXrp6E6ysawmA5i1dWGHgOFgqlYJXFtzNjQHaMALY7DQT7/JZIB6Px2Ix6QgPkwoFAAOJEzH+uE6BiduhIUYmADDTl1gsFuxEGNkCIRPpFJtToC5bVy9fjMViAsls10JPJUsJMrp25QIlQTXBEBnbilBiOysWi8m7IjiDJrLyI1Jss5T5QzxEQCYyN9BPOzbKYS4cxaJf5VQzhVFMNXEcDK2Mw3FKJjIAbPuWdICObXPhMJeeCZ0igInEgX3dzC1SNovOK51Oh8NhLILz+XwikTh07FTt1wAQcf+/JgAo3Da8KgAwxDB9qh+K17mio1SPo3+RRVn/1etLMEWYGwBeeRu+0wigHxdWNAP0+t9ShG3Y+Ky/rHv9qtxGWKzggUVDBRFdUcgtiutrBS8ws6kgoisKPI64PlXwEqws8t1SQQmuKItJZDC3KNPT0zCFcNG90EupxI4dp/mp9GocqaSSyaQBTOKTnyZ4skr/VhPiGas/dQ7cAw4I+ari/9jY2PT0tJB2w38/ABii1z/VOfDN4kAdAA92e87Nzc1e+ujL19/4r9F/f7Br8jVRXwfA18T4GhU7e+kjdl0Ex0CNsvx2ZVMHgF97Z7PZWCyGGKFQyH82iX26BT1Iz9+b3d7eHgqF2tvbfUzVS6VSKBTC/Q4+0eoA8Gu/Cn6rA8CPSdAsDg4O4j4L2Yp9enp6YmJCTlwqMRVme3u7/NG27Xw+L5/2LBaLIyMjlmVNT08Ls0eWolQqyRlOT09bFmudRCIRjUYpz7GxseHhYcqQADD7pgNUilkPVMKBOgD8uITeGmLd0NBAAJjffm1vb9+w8Vn6Ytt2LBZrb2+fjyz7xoJfukgkQiIL/R2Em8qenp4OhUIbNj5LAwgA0NzcbFkWjUK2bYfD4Q0bn6WxyAHAm7HZSx/91+i/4xXrgf8a/ff6woA47BWoA8CLM+x7PB6PRCLXr18vFouWZZG4T05OYg5D13Og+8fHDRufpUyz2axlWdFoVAYA9e4UrVgszisy29vbKUOKk0wm5REA2n464fBfo/8+Nzd3939tnZv6HCuBuanP71gWe+3/U31YIA57BeoA8OIM+57P52n+HY1Gqd+1bXtycpKEdf5GrenpaRJTzN0p32w2K0s/ZjvhcJgiIKAY9pVKpUgkAutOyR+Okoi9zr4Zm+3/09zU53NTn9898n9mL33E/vKPML43pKl/EhyoA0Bw4gH8XyqVnJ7+0kfOFIjPhfAdM6K5qc8fwJotHsl1ACwer+sl3YccqAPgPmyUOkmLx4E6ABaP1/WS7kMO1AFwHzZKnaTF40AdAIvH63pJ9yEH6gC4DxulTtLicaAOgMXjdb2k+5ADdQDch41SJ2nxOFAHwOLxul7SfciBOgDuw0apk7R4HPj/tqi4WdLChI0AAAAASUVORK5CYII=;" vertex="1" parent="13">
                    <mxGeometry x="420" y="146.5" width="256" height="197" as="geometry"/>
                </mxCell>
                <mxCell id="15" value="&lt;div style=&quot;&quot;&gt;&lt;span style=&quot;background-color: transparent;&quot;&gt;&lt;font style=&quot;font-size: 21px; color: rgb(0, 0, 0);&quot;&gt;Multiplication, in JS&lt;/font&gt;&lt;/span&gt;&lt;/div&gt;&lt;div&gt;&lt;font style=&quot;font-size: 21px; color: rgb(0, 0, 0);&quot;&gt;&lt;br&gt;&lt;/font&gt;&lt;/div&gt;&lt;div&gt;&lt;font style=&quot;font-size: 21px; color: rgb(0, 0, 0);&quot;&gt;&lt;br&gt;&lt;/font&gt;&lt;/div&gt;&lt;div style=&quot;&quot;&gt;&lt;span style=&quot;font-size: 21px;&quot;&gt;Please enter values below:&lt;/span&gt;&lt;/div&gt;&lt;div style=&quot;&quot;&gt;&lt;font style=&quot;font-size: 21px; color: rgb(0, 0, 0);&quot;&gt;&lt;br&gt;&lt;/font&gt;&lt;/div&gt;&lt;div style=&quot;&quot;&gt;&lt;br&gt;&lt;/div&gt;&lt;div style=&quot;&quot;&gt;&lt;font style=&quot;color: rgb(0, 0, 0);&quot;&gt;&lt;font style=&quot;font-size: 21px;&quot;&gt;Value 1:&lt;/font&gt;&lt;/font&gt;&lt;/div&gt;&lt;div style=&quot;&quot;&gt;&lt;font style=&quot;color: rgb(0, 0, 0);&quot;&gt;&lt;font style=&quot;font-size: 21px;&quot;&gt;Value 2:&lt;/font&gt;&lt;/font&gt;&lt;/div&gt;&lt;div style=&quot;&quot;&gt;&lt;font style=&quot;color: rgb(0, 0, 0);&quot;&gt;&lt;font style=&quot;font-size: 21px;&quot;&gt;&lt;br&gt;&lt;/font&gt;&lt;/font&gt;&lt;/div&gt;&lt;div style=&quot;&quot;&gt;&lt;font style=&quot;color: rgb(0, 0, 0);&quot;&gt;&lt;font style=&quot;font-size: 21px;&quot;&gt;&lt;br&gt;&lt;/font&gt;&lt;/font&gt;&lt;/div&gt;&lt;div style=&quot;&quot;&gt;&lt;font style=&quot;color: rgb(0, 0, 0);&quot;&gt;&lt;font style=&quot;font-size: 21px;&quot;&gt;&lt;br&gt;&lt;/font&gt;&lt;/font&gt;&lt;/div&gt;&lt;div style=&quot;&quot;&gt;&lt;font style=&quot;color: rgb(0, 0, 0);&quot;&gt;&lt;font style=&quot;font-size: 21px;&quot;&gt;&lt;br&gt;&lt;/font&gt;&lt;/font&gt;&lt;/div&gt;&lt;div style=&quot;&quot;&gt;&lt;font style=&quot;color: rgb(0, 0, 0);&quot;&gt;&lt;font style=&quot;font-size: 21px;&quot;&gt;&lt;br&gt;&lt;/font&gt;&lt;/font&gt;&lt;/div&gt;&lt;div style=&quot;&quot;&gt;&lt;font style=&quot;color: rgb(0, 0, 0);&quot;&gt;&lt;font style=&quot;font-size: 21px;&quot;&gt;value1 x value2 = _____&lt;/font&gt;&lt;/font&gt;&lt;/div&gt;" style="text;strokeColor=none;align=left;fillColor=none;html=1;verticalAlign=middle;whiteSpace=wrap;rounded=0;" vertex="1" parent="1">
                    <mxGeometry x="95" y="100" width="302" height="390" as="geometry"/>
                </mxCell>
                <mxCell id="16" value="Calculate" style="rounded=1;whiteSpace=wrap;html=1;fontSize=18;" vertex="1" parent="1">
                    <mxGeometry x="110" y="380" width="125" height="50" as="geometry"/>
                </mxCell>
                <mxCell id="17" value="" style="rounded=1;whiteSpace=wrap;html=1;" vertex="1" parent="1">
                    <mxGeometry x="180" y="292" width="110" height="20" as="geometry"/>
                </mxCell>
                <mxCell id="18" value="" style="rounded=1;whiteSpace=wrap;html=1;" vertex="1" parent="1">
                    <mxGeometry x="180" y="265" width="110" height="20" as="geometry"/>
                </mxCell>
            </root>
        </mxGraphModel>
    </diagram>
</mxfile>